<svg width="980" height="566" viewBox="0 0 980 566" fill="none" xmlns="http://www.w3.org/2000/svg">
<g clip-path="url(#clip0)">
<path d="M436.7 309.9C395.4 309.9 354.5 309.9 313.2 309.9C313.2 249.4 313.2 189.1 313.2 128.3C272.5 128.3 232.1 128.3 191.4 128.3C191.4 86.6999 191.4 45.6999 191.4 4.3999C273.2 4.3999 354.8 4.3999 436.7 4.3999C436.7 106.2 436.7 207.9 436.7 309.9Z" fill="white"/>
<path d="M799.1 4.49995C793.7 17.2 788.4 29.7 783.1 42.2C745.6 130.4 708.1 218.6 670.7 306.9C669.6 309.5 668.4 310.4 665.6 310.4C619.4 310.3 573.3 310.3 527.1 310.3C526.6 310.3 526.1 310.2 525 310.1C529.6 299.3 534 288.7 538.5 278.1C570.6 202.5 602.7 127 634.9 51.4C641.1 36.9 647.2 22.4 653.2 7.89995C654.2 5.59995 655.2 4.19995 658.2 4.19995C704.4 4.29995 750.5 4.29995 796.7 4.29995C797.4 4.19995 798 4.29995 799.1 4.49995Z" fill="white"/>
<path d="M529.1 124.2C495.3 125.1 465.9 95.1 466.9 60.3C467.9 27.9 496.2 -1.20003 531.3 -3.26298e-05C563.5 1.09997 592.6 29.3 591.2 64.8C589.9 97.2 561.8 125 529.1 124.2Z" fill="white"/>
<path d="M561 451C561.2 448.1 561.3 446 561.4 443.4C569.1 443.4 576.8 443.4 584.8 443.4C584.9 444.7 585.1 446 585.1 447.2C585.1 472.5 585.2 497.9 585 523.2C585 527.1 584.3 531.1 583.4 535C579.2 552.4 567.4 561.6 550.3 564.3C532.4 567.1 515.6 564.5 500.9 553C500.5 552.7 500.2 552.3 499.6 551.5C503.7 545.8 507.9 540.1 512.3 534.1C520.4 541.4 529.5 544.8 540.2 544.4C554.5 543.8 563.5 532.4 560.8 518C540.6 534.8 517.9 525.9 506.9 512.7C492.7 495.6 493.7 468.4 509.3 452.6C522.2 439.3 545.8 435.8 561 451ZM563.1 484.3C563.1 471.6 554 462.3 541.6 462.4C529.8 462.4 520.2 472.2 520.2 484.1C520.2 496.2 529.7 505.6 541.7 505.6C554.2 505.6 563.1 496.7 563.1 484.3Z" fill="white"/>
<path d="M911.7 481.8C907.2 495.4 902.5 508.9 898.4 522.7C897.1 527 895.5 528.7 890.9 528.3C886.1 527.9 881.2 528.4 876.4 528.1C875 528 872.8 526.9 872.4 525.7C863.2 498.4 854.2 471 844.9 442.9C853 442.9 860.6 442.7 868.1 443.1C869.2 443.1 870.6 445.4 871.1 446.9C876 462.9 880.7 478.9 885.8 496.1C886.8 493.6 887.5 492.1 888 490.5C892.6 476 897.3 461.5 901.7 447C902.7 443.8 904.1 442.9 907.3 442.9C921.2 442.9 921.2 442.8 925.4 456.3C929.3 468.6 933.2 480.9 937.2 493.2C937.4 494 937.9 494.7 938.6 496.1C943.6 479.3 948.4 463.3 953 447.2C953.9 444.1 955.2 442.9 958.4 443C965.2 443.2 972 443.1 979.6 443.1C976.1 453.7 972.8 463.5 969.5 473.4C964 490 958.4 506.7 953.2 523.4C951.9 527.5 950 528.9 945.9 528.5C941.4 528.1 936.9 528.2 932.4 528.5C929.2 528.7 927.8 527.7 926.8 524.5C922.3 510.3 917.5 496.2 912.7 482.1C912.4 481.9 912 481.8 911.7 481.8Z" fill="white"/>
<path d="M313.9 451.3C313.9 433.8 313.9 417.4 313.9 400.6C321.6 400.6 329 400.6 336.8 400.6C336.8 442.8 336.8 485.1 336.8 527.9C329.4 527.9 321.8 527.9 314 527.9C314 525.3 314 522.9 314 521.1C308.2 523.8 302.8 527.6 296.8 529C281.3 532.7 266.4 525.7 257.1 511.6C242 488.8 249.8 456.1 273.6 444.7C287.7 437.8 301.2 439.9 313.9 451.3ZM294.5 508.2C307 508.2 315.7 499 315.8 485.7C315.9 472.3 306.9 462.4 294.5 462.3C282.1 462.2 273.1 471.9 273.1 485.3C273.1 499 281.7 508.2 294.5 508.2Z" fill="white"/>
<path d="M584.2 407.2C592.1 407.2 599.2 407.4 606.4 407.1C609.9 407 611.7 408.1 613 411.4C622.9 436 632.9 460.5 642.9 485C643.5 486.4 644 487.7 645 490.3C646 488 646.6 486.7 647.2 485.3C657.1 460.6 667.1 435.9 676.9 411.2C678 408.4 679.3 407 682.6 407.1C690.2 407.4 697.9 407.2 706.1 407.2C701.3 418.9 696.7 430.2 692 441.4C680.8 468.5 669.5 495.5 658.4 522.6C656.8 526.6 655 528.8 650.2 528.3C644.9 527.7 638.4 529.8 634.6 527.4C630.9 525 629.9 518.3 627.9 513.4C613.6 479 599.4 444.6 585.2 410.1C585 409.4 584.7 408.6 584.2 407.2Z" fill="white"/>
<path d="M233.8 528.1C226 528.1 218.7 528.1 210.9 528.1C210.7 525.7 210.4 523.3 210.3 521.4C204.7 524 199.2 527.6 193.3 529C178.2 532.5 166.1 526.4 156.3 515C139.7 495.4 143.9 462.4 165 447.8C178.9 438.1 195.1 438.7 208.2 449.4C208.7 449.8 209.2 450.2 210.2 451C210.4 448.2 210.6 446 210.8 443.4C218.5 443.4 226 443.4 233.9 443.4C233.8 471.4 233.8 499.5 233.8 528.1ZM212.2 485.7C212.3 476.9 209.5 469.6 201.6 465.2C191.5 459.6 179.5 462.6 173.5 471.9C167.1 481.8 169.3 497.6 178.1 504.1C185.1 509.3 192.8 509.8 200.7 506.2C209.3 502.1 212.1 494.6 212.2 485.7Z" fill="white"/>
<path d="M821.8 497.9C827.5 502.2 833.1 506.3 839 510.7C832.4 520.4 823.4 525.9 812.4 528.5C797.4 532 783.2 530.3 770.9 520.7C755.7 508.9 751.6 492.8 755.5 474.8C759.3 457.7 770.5 446.5 787.7 442.4C809.5 437.2 829.3 446.1 837.5 464.3C840.9 471.9 841.3 480 841.1 488.2C841 491.6 838.9 491.3 836.7 491.3C818.9 491.3 801.1 491.3 783.2 491.3C781.4 491.3 779.6 491.3 777.3 491.3C778.5 498.9 782.4 504 789.3 506.4C801.8 510.7 812.8 508.3 821.8 497.9ZM817 474.9C815 465.8 807.8 460.3 798.4 460.3C788.4 460.2 780.2 466.1 778.5 474.9C791.2 474.9 804 474.9 817 474.9Z" fill="white"/>
<path d="M402.4 443.1C410 443.1 417.4 443.1 425.3 443.1C425.5 445.5 425.8 447.9 426.1 450.9C437 440.1 449.4 438.5 462.7 443.3C474.3 447.5 481 457.1 481.7 468.6C482.9 488.1 482 507.8 482 527.7C474.9 527.7 467.4 527.7 459.1 527.7C459.1 526 459.1 524.3 459.1 522.5C459.1 508.3 459.2 494.2 459.1 480C459 466.5 449.8 459.1 438.1 463.3C430.1 466.1 426.5 472.7 426.2 480.7C425.7 494.3 425.8 508 425.7 521.6C425.7 523.6 425.7 525.5 425.7 527.7C417.6 527.7 410.2 527.7 402.4 527.7C402.4 499.7 402.4 471.6 402.4 443.1Z" fill="white"/>
<path d="M0 431.3C0 422.9 0 415.4 0 407.6C29.6 407.6 59.2 407.6 89 407.6C89 415.2 89 422.8 89 430.9C78.5 430.9 68.1 430.9 57.1 430.9C57.1 463.5 57.1 495.5 57.1 527.9C48.5 527.9 40.5 527.9 32 527.9C32 495.8 32 463.9 32 431.3C21.4 431.3 11 431.3 0 431.3Z" fill="white"/>
<path d="M89.5 443.2C97.3 443.2 104.8 443.2 112.8 443.2C112.8 446.6 112.8 449.7 112.8 454.1C114.5 452 115.4 450.7 116.5 449.6C122.7 442.8 130.4 440.9 139.2 442.3C140.1 442.4 141.6 443.8 141.6 444.6C141.8 451.7 141.7 458.8 141.7 466.2C138.6 465.8 136.2 465.3 133.8 465.1C121.2 464.4 113.5 471.5 113.2 484.4C112.9 496.9 113.1 509.4 113 521.9C113 523.7 113 525.5 113 527.8C105.1 527.8 97.5 527.8 89.6 527.8C89.5 499.9 89.5 471.8 89.5 443.2Z" fill="white"/>
<path d="M381.4 527.9C373.4 527.9 366 527.9 358.3 527.9C358.3 499.6 358.3 471.6 358.3 443.2C366 443.2 373.5 443.2 381.4 443.2C381.4 471.5 381.4 499.5 381.4 527.9Z" fill="white"/>
<path d="M716.2 443.2C723.8 443.2 731.2 443.2 738.9 443.2C738.9 471.5 738.9 499.6 738.9 527.9C731.4 527.9 724 527.9 716.2 527.9C716.2 499.8 716.2 471.8 716.2 443.2Z" fill="white"/>
<path d="M369.7 399.2C377.8 399.1 385.1 406.3 385.1 414.2C385.1 422 378 429 370.1 429.2C361.9 429.4 355.1 422.8 355 414.6C354.9 406 361.2 399.3 369.7 399.2Z" fill="white"/>
<path d="M742.4 414.3C742.4 422.5 735.9 429.1 727.7 429.2C719.6 429.3 712.2 422 712.4 414.1C712.5 406.2 719.5 399.3 727.5 399.2C735.8 399.1 742.3 405.7 742.4 414.3Z" fill="white"/>
</g>
<defs>
<clipPath id="clip0">
<rect width="979.5" height="565.3" fill="white"/>
</clipPath>
</defs>
</svg>
