<svg id="Layer_1" data-name="Layer 1" xmlns="http://www.w3.org/2000/svg" viewBox="0 0 542.12 586.42"><defs><style>.cls-1{fill:#fff;}</style></defs><path class="cls-1" d="M506.09,213c-.69-37.06-18.31-65.76-50-84.66C411.72,101.94,366.8,76.55,322.1,50.79A98.48,98.48,0,0,0,284,38.19a12,12,0,0,1-2.68-1h-20c-5.49,1.15-11.2,1.71-16.43,3.59-9,3.24-18.25,6.45-26.54,11.16q-65.53,37.25-130.59,75.3C57.43,145,40.29,171.56,36.23,206.52a13,13,0,0,1-.94,2.69v167c1.29,6.66,2.19,13.42,3.94,20,7.28,27.15,23.05,48.13,47.31,62.28,44.25,25.8,88.7,51.25,133.06,76.87a99.47,99.47,0,0,0,39,13,13.2,13.2,0,0,1,2.76.93h20c4-.83,8.19-1.2,12-2.59,10.26-3.75,21-6.83,30.41-12.15q65.43-36.95,130.2-75.05c33.52-19.61,51.77-49.12,52.33-88C507,318.63,507.07,265.79,506.09,213ZM345.36,195c4.68,0,9.27-.1,13.85,0,3.63.11,4.81-1.41,5-5.07.12-2.16,0-4.33,0-6.49.08-7.76-.74-8-9.56-7.67v13.34c-9.3-4.65-9.62-8-8.95-22.07,6.18,0,12.47-.48,18.66.15,5.62.56,9.21,5.42,9.34,11.14.11,4.66.12,9.32,0,14-.15,5.81-3.06,11.85-9,12.1-7.41.37-12.87.28-19.31.28Zm-34.22-27.73c7.2,0,14.28-1,20.92.26,8.73,1.7,11.12,15.17,4.39,21.5-.94.87-2,1.6-3.18,2.52l9.87,12.86c-4.49.07-11.37,0-11.37,0s-1-1.24-1.93-2.35c-2.59-3.3-5-6.71-7.55-10.08l-1.28.49V204h-9.87v-36.7Zm14.38,69.46a39.38,39.38,0,0,0,5.24,8.43c1.05,1.27,3.48,2.55,4.8,2.16s2.93-2.67,3.21-4.32c.52-3.08.23-6.31.18-9.48-.07-3.81,1.93-5.43,5.53-5.46,1.67,0,3.34,0,5,0,5.14.06,6.91,1.68,7,6.8.09,8.33,0,16.66,0,25,0,7.83,0,15.66,0,23.49,0,6.51-1.55,7.55-7.77,8.16-6.7.66-11-1.51-13.89-7.65a65.73,65.73,0,0,0-7.51-11.72c-1.09-1.42-3.65-2.93-5.06-2.56s-3.12,2.89-3.35,4.64c-.51,3.94-.19,8-.19,12,0,3.47-1.65,5.26-5.19,5.18h-1c-10.64.2-11.34-.48-11.34-11q0-21.75,0-43.48c0-7.41,1.45-8.25,8.5-9C317.45,227.1,322.33,229.88,325.52,236.75ZM275.63,176c1.65-6.87,8.9-10.88,17.3-10,7.82.85,13.06,5.69,13.48,12.82a98.18,98.18,0,0,1,0,13c-.59,8.1-7.06,12.88-16.6,12.62-8.8-.25-14.47-5.48-14.65-13.54,0-2-.18-4-.18-6C275.15,182,274.94,178.88,275.63,176Zm-30.69.36c1.26-6.11,6.09-9.8,12.4-10.35,6.83-.59,11.59,2.05,14.69,8.48-2.15,1.28-7.54,3.84-7.54,3.84a13.38,13.38,0,0,0-3-3c-3.62-2.29-7.44.28-7.7,4.59a87.41,87.41,0,0,0,0,10.49c.28,4.34,4.23,6.89,7.72,4.44,1.34-.94,3.66-2.78,3.66-2.78s4.82,2.67,7.22,4.25c-4.71,7.15-10.73,9.6-17.9,7.42s-10.34-6.75-10.25-15.58C244.25,184.28,244.15,180.23,244.94,176.39Zm-2,55.21c.82-1.7,3.69-3.24,5.72-3.37,6.46-.43,13-.16,19.46-.16,6.65,0,13.32-.23,20,.16,1.88.11,4.9,1.78,5.24,3.23a31.91,31.91,0,0,1,.17,11c-.08.6-3.54,1.06-5.45,1.1-9.58.18-9.58.13-9.58,9.81,0,10.15,0,20.3,0,30.45,0,6-1.62,7.56-7.71,7.59-1.66,0-3.33,0-5,0-4.61.15-6.62-2.09-6.59-6.65.07-11.65-.13-23.3.09-34.94.09-4.65-2-6.32-6.25-6.21-.83,0-1.66,0-2.5,0C242.81,243.57,239.51,238.67,242.94,231.6Zm-14.58-41.79a37,37,0,0,0-4.3-1.11c-7.08-1.91-10.57-6.41-9.92-12.74.57-5.42,5.8-9.61,12.48-9.92a15.22,15.22,0,0,1,13.52,6l-5.33,4.38c-2-.85-3.92-2.27-5.88-2.31-1.75,0-4.51-.47-5.3,2.25-.45,1.57,1.9,3,3.25,3.63,2.5,1.18,5.34,1.65,8,2.54,4.58,1.55,6.29,5.27,6.52,9.64s-1.88,7.63-5.61,9.83c-7.56,4.46-15.18,3.1-21.84-4.28l5.22-5c2.89,1.18,5.25,2.68,7.74,3,1.55.17,4.61,0,5-2.35C232.1,191.68,230.53,190.71,228.36,189.81Zm3.29,83.31a77.35,77.35,0,0,1,6.11,9.65c2.11,3.91.91,6.38-3.34,7.34-2.57.57-5.22.83-7.83,1.26-3.18.51-5.33-.61-6.87-3.57-2.45-4.7-5.16-9.28-7.93-13.81-.59-1-1.91-1.48-2.89-2.21-.44,1.11-1.21,2.21-1.27,3.35-.18,3.32,0,6.66-.08,10,0,1.16.27,2.61-.3,3.43-3.66,5.22-9.15,2.38-13.83,2.65-3.11.18-4.34-2.44-4.31-5.55.07-8.66,0-17.32,0-26,0-8.5.06-17,0-25.49,0-3.82,1.39-6.18,5.43-6.08,9,.23,18,.09,26.87,1,7.87.85,14.31,4.81,16.42,13.13,2,7.95,1.5,15.73-5.2,21.52C229,266.91,229,269.55,231.65,273.12ZM200.51,167.18h8.82V204h-8.82ZM166.77,167c6,0,12.19-.54,18.2.17,5,.58,10.38,3.81,10.24,9.52-.12,5.1.17,9.66,0,15.05.2,8.19-3.32,11.86-11,12.85-5.51.72-10.86.26-17.82,0V195c4.46,0,8.75-.26,13,.07,4.66.36,6.27-2,6.51-6.08.11-1.65,0-3.32,0-5,0-8.2-1-9-10-8.32V189C166.63,185.24,164.56,180.12,166.77,167ZM106.94,271.31c-3.83.9-7.83,1-12.39,1.59,0,4.59-.06,8.9,0,13.21,0,3.46-1.45,5.27-5,5.29-13.85.06-13.58.86-13.46-12.58.13-14.63,0-29.27,0-43.91,0-5.54,1.24-6.9,6.65-6.8,7.63.14,15.29.12,22.85.93,11.45,1.23,18.71,8.92,18.7,20.12C124.32,260.11,119.36,268.42,106.94,271.31Zm46.87,9.12a24.49,24.49,0,0,1-5.48,0c-4.89-.51-8,1.11-8.87,6.33-.53,3.21-2.7,4.57-6,4.68-12.17.42-13.22-.92-9.22-12.53,5-14.37,10-28.72,14.92-43.09,2.69-7.84,2.64-7.85,10.79-7.86h3c10,.13,9.33-1.54,13.09,9.49,5,14.7,10.17,29.35,15.23,44,2,5.86.53,8.09-5.73,8.9-1.8.23-3.6.53-5.39.84-3.65.63-6.28-.44-7-4.37C162.14,281.55,158.9,279.78,153.81,280.43Zm20.64,134.26c-7.6-4.2-11.13-11-11.5-19.87.47-7.49,3.2-14,9.87-18.37,20.57-13.45,41-27.18,61.83-40.12,30.64-19,70.16-10.68,91.24,18.61,4.44,6.17,4,8.45-2.52,12.69q-12.11,7.88-24.24,15.71c-4.92,3.18-6.48,2.92-10.05-1.5-9.53-11.77-20.52-13.43-33.26-5.13q-28.59,18.62-57.25,37.12C190.78,418.84,182.55,419.16,174.45,414.69Zm196-9.43c-19,12.74-38.36,25-57.47,37.62-8.24,5.44-16.77,10.07-26.57,11.88-4.87.89-9.81,1.43-12.95,1.87-26.1-1-45-11.59-58.86-31.42-2.56-3.66-1.32-6.7,2-8.91,9.15-6,18.4-11.89,27.6-17.83,3.4-2.19,6-1.55,8.5,1.71,9.27,12.17,20.69,14.08,33.47,5.78,18.65-12.11,37.44-24,55.91-36.41,16.31-10.94,35.54-1,36.94,15.8C379.68,393.5,377.25,400.67,370.4,405.26Zm31.65-113.88c-10,.06-20,0-30,0-4.06,0-6.08-1.6-6-6q.18-25.72,0-51.45c0-4.39,2.08-5.94,6.07-5.93,9.82,0,19.65-.07,29.47,0,5.24.06,5.95,1.45,6.08,8.4.09,4.56-1.73,6.32-6.22,6.14-5.45-.2-10.92,0-16.79,0V252c4.25,0,8.36.17,12.45,0,5.2-.28,5.59,2.78,6.33,9.73.43,4-2.58,4.82-6,4.76-4.13-.08-8.26,0-12.68,0v10.37c5.82,0,11.6,0,17.38,0,5.57.05,6.36,1,6.36,7S407.39,291.34,402.05,291.38Zm56.71-18.19a99.53,99.53,0,0,1,5.73,8.74c2.7,4.61,1.19,7.56-4.12,8.41-2.12.34-4.25.65-6.37,1-3.32.55-5.67-.42-7.31-3.64-2.27-4.42-4.86-8.7-7.51-12.91-.77-1.22-2.23-2-3.37-3a23.26,23.26,0,0,0-1.16,4.46c-.19,3,0,6-.06,9,0,1,.26,2.18-.17,3-3.19,5.65-8.63,2.57-13.09,3.09-3,.35-5.13-1.48-5.14-4.76q-.06-26.73,0-53.46c0-3.49,2.18-5,5.51-5,3.66,0,7.33,0,11,0,0-.25.07-.5.1-.75,6.54.89,13.32.95,19.56,2.83C466.83,234.52,471,253,460,263.44,456.38,266.81,456,269.46,458.76,273.19Z"/><path class="cls-1" d="M207.58,241.85v16.89c4.78.47,9.5.36,11.54-4.12a11.78,11.78,0,0,0-.27-9.19C216.7,241.35,212.1,241.5,207.58,241.85Z"/><path class="cls-1" d="M434.49,242v16.77c5,.36,9.34.15,11.88-4.19,1.86-3.2,1.92-6.85-.68-9.71C442.67,241.58,438.69,241.2,434.49,242Z"/><path class="cls-1" d="M150.46,248.29c-1.72,5.92-3.45,11.84-5.3,18.21h11.39l-5.16-18.31Z"/><path class="cls-1" d="M94.49,242.16v16.58c4.45.28,8.74.09,10.18-4a13.42,13.42,0,0,0-.45-9.71C102.49,241.72,98.42,241.31,94.49,242.16Z"/><path class="cls-1" d="M330,181.36c.67-1,.22-3.27-.19-3.75-1.75-2.05-3.95-3-9-3v10.62C325.47,185.19,327.85,184.52,330,181.36Z"/><path class="cls-1" d="M290.27,195c2.06,0,5.15-.88,6.2-3.81.56-1.55.18-9.21.23-10.88.08-4.25-2.72-5.67-6.09-5.69s-6,1.32-6.27,5.49c-.24,4-.69,7.53.28,10.92C285.19,193,288.23,195,290.27,195Z"/></svg>